<?xml version="1.0" standalone="no"?>
<!DOCTYPE svg PUBLIC "-//W3C//DTD SVG 20010904//EN"
 "http://www.w3.org/TR/2001/REC-SVG-20010904/DTD/svg10.dtd">
<svg version="1.0" xmlns="http://www.w3.org/2000/svg"
 width="500.000000pt" height="500.000000pt" viewBox="0 0 500.000000 500.000000"
 preserveAspectRatio="xMidYMid meet">
<metadata>
Created by potrace 1.14, written by Peter Selinger 2001-2017
</metadata>
<g transform="translate(0.000000,500.000000) scale(0.100000,-0.100000)"
fill="#000000" stroke="none">
<path d="M2296 4961 c-4 -5 -14 -10 -24 -10 -37 0 -129 -10 -167 -19 -22 -5
-50 -8 -62 -7 -13 1 -23 -2 -23 -7 0 -4 -3 -7 -7 -6 -5 1 -35 -4 -68 -11 -33
-8 -64 -14 -70 -15 -5 -1 -14 -4 -20 -7 -8 -5 -39 -15 -80 -25 -19 -4 -110
-35 -130 -44 -11 -4 -51 -21 -90 -36 -38 -15 -74 -31 -80 -36 -5 -4 -17 -8
-26 -8 -10 0 -19 -3 -21 -7 -1 -5 -39 -26 -83 -48 -44 -22 -81 -43 -83 -47 -2
-5 -8 -8 -13 -8 -21 0 -266 -172 -348 -245 -73 -64 -268 -262 -296 -300 -17
-22 -36 -44 -42 -48 -7 -4 -13 -12 -13 -17 0 -5 -13 -23 -30 -41 -16 -18 -27
-35 -25 -37 3 -3 -5 -13 -17 -23 -11 -11 -17 -19 -12 -19 5 0 4 -4 -2 -8 -6
-4 -35 -47 -65 -97 -30 -49 -57 -91 -61 -93 -5 -2 -8 -10 -8 -17 0 -13 -30
-75 -41 -85 -3 -3 -22 -45 -43 -95 -21 -49 -44 -103 -51 -120 -14 -30 -81
-246 -89 -287 -3 -13 -8 -34 -11 -48 -3 -14 -8 -36 -10 -50 -2 -14 -7 -36 -10
-50 -3 -14 -8 -43 -10 -65 -3 -22 -7 -53 -10 -70 -12 -70 -17 -139 -21 -289
-3 -120 -1 -162 9 -168 7 -4 8 -8 1 -8 -6 0 -11 -7 -11 -15 0 -8 3 -15 6 -15
3 0 8 -26 9 -58 4 -58 9 -107 12 -107 1 0 3 -16 6 -35 2 -19 7 -48 10 -65 3
-16 7 -39 9 -50 14 -83 100 -372 116 -390 5 -5 9 -15 9 -22 0 -7 14 -42 30
-78 17 -36 30 -70 30 -74 0 -5 3 -11 8 -13 4 -2 24 -37 45 -78 61 -118 88
-165 98 -168 5 -2 9 -10 9 -18 0 -8 5 -14 10 -14 6 0 10 -7 10 -15 0 -8 5 -15
12 -15 6 0 8 -3 5 -6 -4 -4 2 -14 12 -23 10 -9 21 -26 25 -38 4 -13 12 -23 17
-23 5 0 9 -4 9 -10 0 -5 10 -20 23 -33 12 -14 38 -44 57 -68 50 -63 332 -339
346 -339 4 0 37 -27 59 -48 8 -6 18 -12 23 -12 5 0 16 -7 23 -16 30 -37 349
-226 349 -207 0 4 6 -1 13 -12 8 -10 19 -15 25 -11 7 4 12 4 12 -1 0 -4 15
-14 32 -22 18 -7 51 -21 73 -31 71 -31 250 -89 352 -114 10 -3 20 -5 23 -6 3
-1 10 -3 15 -5 6 -1 12 -3 15 -4 10 -5 76 -14 98 -13 12 0 22 -3 22 -7 0 -4
12 -8 28 -8 15 0 52 -4 82 -8 30 -4 66 -8 80 -9 14 -1 31 -6 38 -10 7 -4 12
-2 12 5 0 8 4 8 13 1 15 -13 442 -5 442 8 0 1 14 3 30 5 57 6 94 13 106 21 7
4 10 3 5 -4 -4 -7 2 -8 21 -1 16 5 73 20 128 33 142 34 201 51 275 81 36 15
70 28 75 29 6 1 26 9 46 18 20 9 45 19 57 22 12 4 22 12 22 18 0 6 3 9 6 5 5
-5 106 44 219 107 51 28 195 129 195 137 0 4 8 10 18 13 9 3 31 17 47 31 17
14 48 40 70 58 57 47 242 233 300 302 28 33 53 62 58 63 4 2 5 8 1 13 -3 5 -1
9 5 9 5 0 23 21 40 47 109 169 131 204 158 253 41 75 77 143 79 153 1 4 3 10
4 15 1 4 2 10 1 15 0 4 3 7 7 7 4 0 16 24 27 53 10 28 21 57 25 62 6 8 31 75
35 95 1 3 10 32 20 65 10 33 20 65 21 70 1 6 14 59 28 118 15 60 24 112 21
117 -3 5 -1 11 5 15 6 4 8 10 5 15 -3 5 -1 12 5 15 8 5 7 11 -1 21 -6 8 -7 14
-3 14 9 0 11 18 17 127 1 29 6 53 11 53 5 0 2 8 -5 17 -9 11 -10 14 -2 9 16
-9 16 258 1 288 -7 13 -7 16 1 12 6 -4 11 -2 11 3 0 6 -3 11 -7 11 -5 0 -8 21
-7 48 0 26 -2 51 -5 57 -3 5 -6 28 -8 50 -2 22 -5 49 -8 60 -3 11 -8 36 -11
55 -6 42 -12 75 -14 75 -2 0 -7 28 -13 62 -2 12 -6 26 -10 29 -4 4 -7 15 -7
25 0 56 -157 462 -189 489 -3 3 -7 12 -9 20 -6 28 -162 279 -217 348 -124 157
-384 422 -413 422 -6 0 -12 4 -14 8 -5 12 -136 112 -147 112 -5 0 -11 4 -13 9
-4 12 -168 113 -168 104 0 -5 -4 -3 -8 2 -10 14 -172 96 -172 88 0 -5 -4 -2
-9 5 -4 7 -14 14 -22 15 -8 2 -19 5 -24 9 -31 19 -257 98 -281 98 -8 0 -14 5
-14 11 0 5 -4 7 -10 4 -5 -3 -18 -2 -27 3 -10 6 -34 12 -53 15 -19 3 -42 7
-50 11 -17 6 -59 15 -110 22 -51 8 -75 12 -75 14 0 1 -20 3 -45 6 -25 2 -61 5
-80 7 -19 1 -41 7 -49 11 -10 7 -12 5 -6 -5 7 -11 6 -12 -6 -2 -20 16 -349 16
-349 1 0 -6 -6 -6 -14 1 -9 8 -16 8 -20 2z"/>
</g>
</svg>
